<svg height="96" width="96" xmlns="http://www.w3.org/2000/svg" xmlns:xlink="http://www.w3.org/1999/xlink"><linearGradient id="a"><stop offset="0" stop-color="#fefefe"/><stop offset="1" stop-color="#fefefe" stop-opacity="0"/></linearGradient><linearGradient id="b" gradientUnits="userSpaceOnUse" x1="36.357143" x2="36.357143" xlink:href="#a" y1="6" y2="63.893143"/><filter id="c" color-interpolation-filters="sRGB" height="1.384" width="1.384" x="-.192" y="-.192"><feGaussianBlur stdDeviation="5.28"/></filter><linearGradient id="d" gradientUnits="userSpaceOnUse" x1="48" x2="48" xlink:href="#a" y1="20.220806" y2="138.66119"/><radialGradient id="e" cx="48" cy="90.171875" gradientTransform="matrix(1.1573129 0 0 .99590774 -7.551021 .197132)" gradientUnits="userSpaceOnUse" r="42" xlink:href="#a"/><clipPath id="f"><rect height="84" rx="6" width="84" x="6" y="6"/></clipPath><linearGradient id="g" gradientUnits="userSpaceOnUse" x1="48" x2="48" y1="90" y2="5.987717"><stop offset="0" stop-color="#26588a"/><stop offset="1" stop-color="#4284ad"/></linearGradient><linearGradient id="h" gradientTransform="matrix(1.0058652 0 0 .994169 100 0)" gradientUnits="userSpaceOnUse" x1="45.447727" x2="45.447727" y1="92.539597" y2="7.01654"><stop offset="0"/><stop offset="1" stop-opacity=".588235"/></linearGradient><linearGradient id="i" gradientTransform="matrix(1.0238095 0 0 1.0119048 -1.142857 -98.071429)" gradientUnits="userSpaceOnUse" x1="32.251034" x2="32.251034" xlink:href="#h" y1="6.131708" y2="90.238609"/><linearGradient id="j" gradientTransform="translate(0 -97)" gradientUnits="userSpaceOnUse" x1="32.251034" x2="32.251034" xlink:href="#h" y1="6.131708" y2="90.238609"/><linearGradient id="k" gradientTransform="matrix(-1 0 0 -1 95.949196 95.85964)" gradientUnits="userSpaceOnUse" x1="36.357143" x2="36.357143" xlink:href="#a" y1="6" y2="63.893143"/><g fill="url(#i)"><path d="m12-95.03125c-5.5110903 0-10.03125 4.52016-10.03125 10.03125v71c0 5.5110902 4.5201598 10.03125 10.03125 10.03125h72c5.51109 0 10.03125-4.5201597 10.03125-10.03125v-71c0-5.51109-4.52016-10.03125-10.03125-10.03125z" opacity=".08" transform="scale(1 -1)"/><path d="m12-94.03125c-4.971633 0-9.03125 4.059617-9.03125 9.03125v71c0 4.9716329 4.0596171 9.03125 9.03125 9.03125h72c4.971633 0 9.03125-4.059617 9.03125-9.03125v-71c0-4.971633-4.059617-9.03125-9.03125-9.03125z" opacity=".1" transform="scale(1 -1)"/><path d="m12-93c-4.4091333 0-8 3.590867-8 8v71c0 4.4091333 3.5908667 8 8 8h72c4.409133 0 8-3.5908667 8-8v-71c0-4.409133-3.590867-8-8-8z" opacity=".2" transform="scale(1 -1)"/><rect height="85" opacity=".3" rx="7" transform="scale(1 -1)" width="86" x="5" y="-92"/></g><rect fill="url(#j)" height="84" opacity=".45" rx="6" transform="scale(1 -1)" width="84" x="6" y="-91"/><rect fill="url(#g)" height="84" rx="6" width="84" x="6" y="6"/><path d="m12 6c-3.324 0-6 2.676-6 6v2 68 2c0 .334721.04135.6507.09375.96875.0487.295596.09704.596915.1875.875.00988.03038.020892.0636.03125.09375.098865.287771.2348802.547452.375.8125.1445918.273507.3156161.535615.5.78125s.3737765.473472.59375.6875c.439947.428056.94291.814526 1.5 1.09375.278545.139612.5734731.246947.875.34375-.2562018-.100222-.4867109-.236272-.71875-.375-.00741-.0044-.023866.0045-.03125 0-.031933-.0193-.062293-.04251-.09375-.0625-.120395-.0767-.2310226-.163513-.34375-.25-.1061728-.0808-.2132809-.161112-.3125-.25-.1779299-.161433-.3474596-.345388-.5-.53125-.1075789-.130255-.2183939-.265285-.3125-.40625-.025089-.03838-.038446-.08587-.0625-.125-.064763-.103032-.1302275-.204517-.1875-.3125-.1010083-.194706-.2056748-.415701-.28125-.625-.00796-.02181-.023589-.04055-.03125-.0625-.0318251-.09195-.0358045-.186831-.0625-.28125-.0303323-.106618-.0703894-.203031-.09375-.3125-.0728786-.341512-.125-.698205-.125-1.0625v-2-68-2c0-2.781848 2.2181517-5 5-5h2 68 2c2.781848 0 5 2.218152 5 5v2 68 2c0 .364295-.05212.720988-.125 1.0625-.04415.206893-.08838.397658-.15625.59375-.0077.02195-.0233.04069-.03125.0625-.06274.173739-.138383.367449-.21875.53125-.04158.0828-.07904.169954-.125.25-.0546.09721-.126774.18835-.1875.28125-.09411.140965-.204921.275995-.3125.40625-.143174.17445-.303141.346998-.46875.5-.01117.0102-.01998.02115-.03125.03125-.138386.125556-.285091.234436-.4375.34375-.102571.07315-.204318.153364-.3125.21875-.0074.0045-.02384-.0044-.03125 0-.232039.138728-.462548.274778-.71875.375.301527-.0968.596455-.204138.875-.34375.55709-.279224 1.060053-.665694 1.5-1.09375.219973-.214028.409366-.441865.59375-.6875s.355408-.507743.5-.78125c.14012-.265048.276135-.524729.375-.8125.01041-.03078.02133-.06274.03125-.09375.09046-.278085.1388-.579404.1875-.875.0524-.31805.09375-.634029.09375-.96875v-2-68-2c0-3.324-2.676-6-6-6z" fill="url(#b)" opacity=".5"/><path d="m12 90c-3.324 0-6-2.676-6-6v-2-68-2c0-.334721.04135-.6507.09375-.96875.0487-.295596.09704-.596915.1875-.875.00988-.03038.020892-.0636.03125-.09375.098865-.287771.2348802-.547452.375-.8125.1445918-.273507.3156161-.535615.5-.78125s.3737765-.473472.59375-.6875c.439947-.428056.94291-.814526 1.5-1.09375.278545-.139612.5734731-.246947.875-.34375-.2562018.100222-.4867109.236272-.71875.375-.00741.0044-.023866-.0045-.03125 0-.031933.0193-.062293.04251-.09375.0625-.120395.0767-.2310226.163513-.34375.25-.1061728.0808-.2132809.161112-.3125.25-.1779299.161433-.3474596.345388-.5.53125-.1075789.130255-.2183939.265285-.3125.40625-.025089.03838-.038446.08587-.0625.125-.064763.103032-.1302275.204517-.1875.3125-.1010083.194706-.2056748.415701-.28125.625-.00796.02181-.023589.04055-.03125.0625-.0318251.09195-.0358045.186831-.0625.28125-.0303323.106618-.0703894.203031-.09375.3125-.0728786.341512-.125.698205-.125 1.0625v2 68 2c0 2.781848 2.2181517 5 5 5h2 68 2c2.781848 0 5-2.218152 5-5v-2-68-2c0-.364295-.05212-.720988-.125-1.0625-.04415-.206893-.08838-.397658-.15625-.59375-.0077-.02195-.0233-.04069-.03125-.0625-.06274-.173739-.138383-.367449-.21875-.53125-.04158-.0828-.07904-.169954-.125-.25-.0546-.09721-.126774-.18835-.1875-.28125-.09411-.140965-.204921-.275995-.3125-.40625-.143174-.17445-.303141-.346998-.46875-.5-.01117-.0102-.01998-.02115-.03125-.03125-.138386-.125556-.285091-.234436-.4375-.34375-.102571-.07315-.204318-.153364-.3125-.21875-.0074-.0045-.02384.0044-.03125 0-.232039-.138728-.462548-.274778-.71875-.375.301527.0968.596455.204138.875.34375.55709.279224 1.060053.665694 1.5 1.09375.219973.214028.409366.441865.59375.6875s.355408.507743.5.78125c.14012.265048.276135.524729.375.8125.01041.03078.02133.06274.03125.09375.09046.278085.1388.579404.1875.875.0524.31805.09375.634029.09375.96875v2 68 2c0 3.324-2.676 6-6 6z" fill="url(#e)" opacity=".2"/><path d="m83.949197 89.85964c3.324 0 6.000001-2.676001 6.000001-6v-2-68-2c0-.334722-.04135-.6507-.09375-.96875-.0487-.295597-.09704-.596914-.1875-.875-.0099-.03038-.02089-.0636-.03125-.09375-.09886-.287771-.234881-.547452-.375-.8125-.144593-.273507-.315617-.535615-.5-.78125-.184384-.245635-.373777-.473472-.59375-.6875-.439948-.428056-.94291-.814526-1.5-1.09375-.278545-.139612-.573474-.246947-.875-.34375.256202.100222.48671.236272.71875.375.0074.0044.02387-.0045.03125 0 .03193.0193.06229.04251.09375.0625.120395.0767.231022.163513.34375.25.106172.0808.21328.161112.3125.25.17793.161433.347459.345388.5.53125.107579.130255.218394.265285.3125.40625.02509.03838.03845.08587.0625.125.06476.103032.130228.204517.1875.3125.101008.194706.205674.415701.28125.625.008.02181.02359.04055.03125.0625.03182.09195.0358.186831.0625.28125.03033.106618.07039.203031.09375.3125.07288.3415112.125.6982052.125 1.0625002v2 68 2c0 2.781847-2.218153 5-5.000001 5h-2-67.999994-2c-2.7818515 0-5.0000005-2.218153-5.0000005-5v-2-68-2c0-.364295.0521-.720989.125-1.0625002.0442-.206893.0884-.397658.15625-.59375.008-.02195.0233-.04069.0312-.0625.0627-.173739.138379-.367449.21875-.53125.0416-.0828.079-.169954.125-.25.0546-.09721.126769-.18835.1875-.28125.0941-.140965.20492-.275995.3125-.40625.143169-.17445.30314-.346998.46875-.5.0112-.0102.02-.02115.0312-.03125.13838-.125556.28509-.234436.4375-.34375.10257-.07315.204311-.153364.3125-.21875.007-.0045.0238.0044.0312 0 .23203-.138728.462541-.274778.7187505-.375-.3015305.0968-.5964595.204138-.8750005.34375-.55709.279224-1.060059.665694-1.5 1.09375-.21998.214028-.409369.441865-.59375.6875-.184389.245635-.35541.507743-.5.78125-.140119.265048-.27614.524729-.375.8125-.0104.03078-.0213.06274-.0312.09375-.0905.278085-.1388.579403-.1875.875-.0524.31805-.0937.634028-.0937.96875v2 68 2c0 3.323999 2.676 6 6.0000005 6z" fill="url(#k)" opacity=".084"/><rect height="66" rx="12" style="opacity:.1;stroke:#fefefe;stroke-width:.5;stroke-linecap:round;clip-path:url(#f);fill:url(#d);filter:url(#c)" width="66" x="15" y="15"/><path d="m38.260951 76.751209c-11.65088-2.444531-19.30353-8.569093-19.31635-15.45923-.004-2.356831.17293-2.482878 2.40041-1.706373 1.17975.411263 1.2942.6067 1.2942 2.209954 0 .967336.23117 1.948303.5137 2.179927.72681.595842 5.68311 2.173726 6.07232 1.933184.17781-.10989.45043-1.124252.60583-2.254138.15539-1.129883.44101-2.054335.63471-2.054335.19369 0 1.266.195983 2.3829.435514l2.03074.435518.27695 2.216655c.19557 1.565211.48032 2.27529.96894 2.416179 1.59696.460463 7.16682 1.119136 7.70789.911507.41062-.15757.58684-.907825.58684-2.498367v-2.27317h4.05822 4.05822l.25685 1.284247c.14127.706335.25685 1.712543.25685 2.236019 0 .523475.1797 1.06283.39932 1.19857.47155.291431 7.11477-.584437 7.84207-1.033936.27554-.170293.59091-1.245596.70084-2.389566l.19986-2.079945 2.20386-.457521c1.21213-.251638 2.39146-.34158 2.62074-.199878.22928.141703.41687 1.068005.41687 2.058448 0 .990444.17556 1.909311.39013 2.041924.43604.269482 5.28182-1.26344 6.08247-1.924139.28254-.233149.5137-1.118342.5137-1.9671 0-1.693604.56995-2.392706 2.08787-2.560994.85029-.09427 1.01307.08447 1.12374 1.233928.54895 5.701646-5.21018 11.584222-14.41222 14.721154-6.817 2.323878-17.54122 2.902216-24.95847 1.345964zm1.0221-10.421482c-.22603-.0754-.9099-.246834-1.51971-.380975-1.01069-.222317-1.11972-.434478-1.23288-2.39896l-.12413-2.155073-2.03245-.501569c-1.11785-.275863-2.8747-.55326-3.90411-.616438l-1.87165-.11487-.12747 1.76896c-.14847 2.060553-.69043 2.403662-2.7323 1.729784-1.37769-.454677-1.4553-.578244-1.4553-2.316851 0-1.609888-.15184-1.922962-1.23028-2.536623l-1.23028-.700064-.0114-6.986302-.0114-6.986301-1.84053-2.841247c-1.01229-1.562686-1.84052-2.9642-1.84052-3.114475 0-.419313 2.28612-3.716694 3.82321-5.514408l1.37413-1.607116 2.76674 1.469146 2.76674 1.469146 2.60829-1.916825 2.60829-1.916824.14274-3.492015.14274-3.492016 2.46575-.978012c1.35616-.537906 3.14961-1.070035 3.98542-1.182508 1.51849-.204339 1.52071-.202387 2.86218 2.517972l1.34251 2.72247h3.19355 3.19355l1.22185-2.363014c1.91446-3.702513 1.57015-3.520087 4.77878-2.532005 1.56575.482165 3.38049 1.151267 4.03275 1.486893l1.18594.61023-.26752 3.20774-.26751 3.207739 2.64837 1.889839c1.4566 1.039411 2.87012 1.889838 3.14115 1.889838.27102 0 1.5009-.576795 2.73306-1.281766l2.24029-1.281766 1.43228 1.384506c1.85151 1.789756 3.84472 4.800498 3.84472 5.807449 0 .433884-.73973 1.843432-1.64384 3.132328l-1.64383 2.343449v7.108054c0 6.724097-.0466 7.145786-.86265 7.806582-.57152.46279-.93626 1.351665-1.08078 2.633866-.20612 1.82866-.30596 1.961646-1.81124 2.41264-.87621.262517-1.70605.364344-1.84412.226283-.13806-.138066-.34778-1.109454-.46604-2.158644l-.21501-1.907621-1.89433.277045c-5.86964.858434-6.19032 1.074127-6.20378 4.172804-.006 1.4928-.27497 1.640721-3.67649 2.025559l-2.49351.282107v-2.32495-2.324955l-5.65068.114337-5.65069.114337-.12421 2.157534-.12422 2.157534-1.51962-.03247c-.83579-.01782-1.70455-.09411-1.93058-.169512zm10.89041-11.71583c.11301-1.017123.11301-2.773973 0-3.90411-.20353-2.035225-.21918-2.054794-1.64384-2.054794h-1.43835l-.12001 3.430241c-.13358 3.818454.2443 4.697928 1.93415 4.501495.93035-.108147 1.08814-.353638 1.26805-1.972832zm-12.76507.892905c3.7233-1.996828 3.89249-7.670969.29502-9.894326-4.79916-2.966041-10.4195 1.95423-8.13405 7.120869 1.42812 3.228516 4.77957 4.414262 7.83903 2.773457zm27.5514.03111c1.86442-.936717 3.29586-3.107443 3.29586-4.998053 0-5.887047-7.59419-7.88614-10.68715-2.813283-1.52707 2.504602-.64804 5.819246 2.01505 7.598304 1.67219 1.117098 3.43757 1.187051 5.37624.213032z" fill="#fefefe" stroke-width=".410959"/><path d="m39.208578 51.155595a4 4 0 0 1 -4 4 4 4 0 0 1 -4-4 4 4 0 0 1 4-4 4 4 0 0 1 4 4z"/><path d="m65.9857 51.128682a4 4 0 0 1 -4 4 4 4 0 0 1 -4-4 4 4 0 0 1 4-4 4 4 0 0 1 4 4z"/></svg>